<mxfile host="app.diagrams.net" modified="2021-01-10T03:26:36.614Z" agent="5.0 (Macintosh; Intel Mac OS X 10_15_6) AppleWebKit/537.36 (KHTML, like Gecko) Chrome/86.0.4240.193 Safari/537.36" etag="baKLDXKV9ZuoJgYtAKFw" version="14.1.9" type="github">
  <diagram id="6IUKlOMLE9OSGgECm1Cl" name="Page-1">
    <mxGraphModel dx="946" dy="536" grid="1" gridSize="10" guides="0" tooltips="1" connect="1" arrows="1" fold="1" page="1" pageScale="1" pageWidth="827" pageHeight="1169" math="0" shadow="0">
      <root>
        <mxCell id="0" />
        <mxCell id="1" parent="0" />
        <mxCell id="iDDoLLVezc7MzI6JggZh-1" value="" style="shape=table;html=1;whiteSpace=wrap;startSize=0;container=1;collapsible=0;childLayout=tableLayout;" vertex="1" parent="1">
          <mxGeometry x="260" y="470" width="120" height="200" as="geometry" />
        </mxCell>
        <mxCell id="iDDoLLVezc7MzI6JggZh-18" style="shape=partialRectangle;html=1;whiteSpace=wrap;collapsible=0;dropTarget=0;pointerEvents=0;fillColor=none;top=0;left=0;bottom=0;right=0;points=[[0,0.5],[1,0.5]];portConstraint=eastwest;" vertex="1" parent="iDDoLLVezc7MzI6JggZh-1">
          <mxGeometry width="120" height="40" as="geometry" />
        </mxCell>
        <mxCell id="iDDoLLVezc7MzI6JggZh-19" value="Page 4k" style="shape=partialRectangle;html=1;whiteSpace=wrap;connectable=0;fillColor=none;top=0;left=0;bottom=0;right=0;overflow=hidden;" vertex="1" parent="iDDoLLVezc7MzI6JggZh-18">
          <mxGeometry width="120" height="40" as="geometry" />
        </mxCell>
        <mxCell id="iDDoLLVezc7MzI6JggZh-16" style="shape=partialRectangle;html=1;whiteSpace=wrap;collapsible=0;dropTarget=0;pointerEvents=0;fillColor=none;top=0;left=0;bottom=0;right=0;points=[[0,0.5],[1,0.5]];portConstraint=eastwest;" vertex="1" parent="iDDoLLVezc7MzI6JggZh-1">
          <mxGeometry y="40" width="120" height="40" as="geometry" />
        </mxCell>
        <mxCell id="iDDoLLVezc7MzI6JggZh-17" value="&lt;span&gt;Page 4k&lt;/span&gt;" style="shape=partialRectangle;html=1;whiteSpace=wrap;connectable=0;fillColor=none;top=0;left=0;bottom=0;right=0;overflow=hidden;" vertex="1" parent="iDDoLLVezc7MzI6JggZh-16">
          <mxGeometry width="120" height="40" as="geometry" />
        </mxCell>
        <mxCell id="iDDoLLVezc7MzI6JggZh-14" style="shape=partialRectangle;html=1;whiteSpace=wrap;collapsible=0;dropTarget=0;pointerEvents=0;fillColor=none;top=0;left=0;bottom=0;right=0;points=[[0,0.5],[1,0.5]];portConstraint=eastwest;" vertex="1" parent="iDDoLLVezc7MzI6JggZh-1">
          <mxGeometry y="80" width="120" height="40" as="geometry" />
        </mxCell>
        <mxCell id="iDDoLLVezc7MzI6JggZh-15" value="&lt;span&gt;Page 4k&lt;/span&gt;" style="shape=partialRectangle;html=1;whiteSpace=wrap;connectable=0;fillColor=none;top=0;left=0;bottom=0;right=0;overflow=hidden;" vertex="1" parent="iDDoLLVezc7MzI6JggZh-14">
          <mxGeometry width="120" height="40" as="geometry" />
        </mxCell>
        <mxCell id="iDDoLLVezc7MzI6JggZh-2" value="" style="shape=partialRectangle;html=1;whiteSpace=wrap;collapsible=0;dropTarget=0;pointerEvents=0;fillColor=none;top=0;left=0;bottom=0;right=0;points=[[0,0.5],[1,0.5]];portConstraint=eastwest;" vertex="1" parent="iDDoLLVezc7MzI6JggZh-1">
          <mxGeometry y="120" width="120" height="40" as="geometry" />
        </mxCell>
        <mxCell id="iDDoLLVezc7MzI6JggZh-3" value="&lt;span&gt;Page 4k&lt;/span&gt;" style="shape=partialRectangle;html=1;whiteSpace=wrap;connectable=0;fillColor=none;top=0;left=0;bottom=0;right=0;overflow=hidden;" vertex="1" parent="iDDoLLVezc7MzI6JggZh-2">
          <mxGeometry width="120" height="40" as="geometry" />
        </mxCell>
        <mxCell id="iDDoLLVezc7MzI6JggZh-6" value="" style="shape=partialRectangle;html=1;whiteSpace=wrap;collapsible=0;dropTarget=0;pointerEvents=0;fillColor=none;top=0;left=0;bottom=0;right=0;points=[[0,0.5],[1,0.5]];portConstraint=eastwest;" vertex="1" parent="iDDoLLVezc7MzI6JggZh-1">
          <mxGeometry y="160" width="120" height="40" as="geometry" />
        </mxCell>
        <mxCell id="iDDoLLVezc7MzI6JggZh-7" value="&lt;span&gt;Page 4k&lt;/span&gt;" style="shape=partialRectangle;html=1;whiteSpace=wrap;connectable=0;fillColor=none;top=0;left=0;bottom=0;right=0;overflow=hidden;" vertex="1" parent="iDDoLLVezc7MzI6JggZh-6">
          <mxGeometry width="120" height="40" as="geometry" />
        </mxCell>
        <mxCell id="iDDoLLVezc7MzI6JggZh-20" value="" style="shape=curlyBracket;whiteSpace=wrap;html=1;rounded=1;rotation=-180;size=0.5;" vertex="1" parent="1">
          <mxGeometry x="404" y="470" width="20" height="80" as="geometry" />
        </mxCell>
        <mxCell id="iDDoLLVezc7MzI6JggZh-21" value="" style="shape=curlyBracket;whiteSpace=wrap;html=1;rounded=1;rotation=-180;" vertex="1" parent="1">
          <mxGeometry x="404" y="550" width="20" height="120" as="geometry" />
        </mxCell>
        <mxCell id="iDDoLLVezc7MzI6JggZh-26" value="代码段" style="text;html=1;strokeColor=none;fillColor=none;align=center;verticalAlign=middle;whiteSpace=wrap;rounded=0;" vertex="1" parent="1">
          <mxGeometry x="450" y="500" width="40" height="20" as="geometry" />
        </mxCell>
        <mxCell id="iDDoLLVezc7MzI6JggZh-27" value="数据段" style="text;html=1;strokeColor=none;fillColor=none;align=center;verticalAlign=middle;whiteSpace=wrap;rounded=0;" vertex="1" parent="1">
          <mxGeometry x="450" y="600" width="40" height="20" as="geometry" />
        </mxCell>
      </root>
    </mxGraphModel>
  </diagram>
</mxfile>
